<svg xmlns="http://www.w3.org/2000/svg" xmlns:xlink="http://www.w3.org/1999/xlink" width="256" zoomAndPan="magnify" viewBox="0 0 192 191.999996" height="256" preserveAspectRatio="xMidYMid meet" version="1.2"><g id="db8e897623"><path style=" stroke:none;fill-rule:nonzero;fill:#75b73b;fill-opacity:1;" d="M 192 96 C 192 97.570312 191.960938 99.140625 191.882812 100.710938 C 191.808594 102.28125 191.691406 103.847656 191.539062 105.410156 C 191.382812 106.972656 191.191406 108.53125 190.960938 110.085938 C 190.730469 111.640625 190.460938 113.1875 190.15625 114.730469 C 189.847656 116.269531 189.503906 117.800781 189.121094 119.324219 C 188.742188 120.851562 188.324219 122.363281 187.867188 123.867188 C 187.410156 125.371094 186.917969 126.863281 186.386719 128.339844 C 185.859375 129.820312 185.292969 131.285156 184.691406 132.738281 C 184.089844 134.1875 183.453125 135.625 182.78125 137.046875 C 182.109375 138.464844 181.40625 139.867188 180.664062 141.253906 C 179.921875 142.640625 179.148438 144.007812 178.34375 145.355469 C 177.535156 146.703125 176.695312 148.027344 175.820312 149.335938 C 174.949219 150.640625 174.042969 151.925781 173.109375 153.1875 C 172.171875 154.449219 171.207031 155.6875 170.210938 156.902344 C 169.210938 158.117188 168.1875 159.304688 167.132812 160.46875 C 166.078125 161.632812 164.992188 162.769531 163.882812 163.882812 C 162.769531 164.992188 161.632812 166.078125 160.46875 167.132812 C 159.304688 168.1875 158.117188 169.210938 156.902344 170.210938 C 155.6875 171.207031 154.449219 172.171875 153.1875 173.109375 C 151.925781 174.042969 150.640625 174.949219 149.335938 175.820312 C 148.027344 176.695312 146.703125 177.535156 145.355469 178.34375 C 144.007812 179.148438 142.640625 179.921875 141.253906 180.664062 C 139.867188 181.40625 138.464844 182.109375 137.046875 182.78125 C 135.625 183.453125 134.1875 184.089844 132.738281 184.691406 C 131.285156 185.292969 129.820312 185.859375 128.339844 186.386719 C 126.863281 186.917969 125.371094 187.410156 123.867188 187.867188 C 122.363281 188.324219 120.851562 188.742188 119.324219 189.121094 C 117.800781 189.503906 116.269531 189.847656 114.730469 190.15625 C 113.1875 190.460938 111.640625 190.730469 110.085938 190.960938 C 108.53125 191.191406 106.972656 191.382812 105.410156 191.539062 C 103.847656 191.691406 102.28125 191.808594 100.710938 191.882812 C 99.140625 191.960938 97.570312 192 96 192 C 94.429688 192 92.859375 191.960938 91.289062 191.882812 C 89.71875 191.808594 88.152344 191.691406 86.589844 191.539062 C 85.027344 191.382812 83.46875 191.191406 81.914062 190.960938 C 80.359375 190.730469 78.8125 190.460938 77.269531 190.15625 C 75.730469 189.847656 74.199219 189.503906 72.675781 189.121094 C 71.148438 188.742188 69.636719 188.324219 68.132812 187.867188 C 66.628906 187.410156 65.136719 186.917969 63.660156 186.386719 C 62.179688 185.859375 60.714844 185.292969 59.261719 184.691406 C 57.8125 184.089844 56.375 183.453125 54.953125 182.78125 C 53.535156 182.109375 52.132812 181.40625 50.746094 180.664062 C 49.359375 179.921875 47.992188 179.148438 46.644531 178.34375 C 45.296875 177.535156 43.972656 176.695312 42.664062 175.820312 C 41.359375 174.949219 40.074219 174.042969 38.8125 173.109375 C 37.550781 172.171875 36.3125 171.207031 35.097656 170.210938 C 33.882812 169.210938 32.695312 168.1875 31.53125 167.132812 C 30.367188 166.078125 29.230469 164.992188 28.117188 163.882812 C 27.007812 162.769531 25.921875 161.632812 24.867188 160.46875 C 23.8125 159.304688 22.789062 158.117188 21.789062 156.902344 C 20.792969 155.6875 19.828125 154.449219 18.890625 153.1875 C 17.957031 151.925781 17.050781 150.640625 16.179688 149.335938 C 15.304688 148.027344 14.464844 146.703125 13.65625 145.355469 C 12.851562 144.007812 12.078125 142.640625 11.335938 141.253906 C 10.59375 139.867188 9.890625 138.464844 9.21875 137.046875 C 8.546875 135.625 7.910156 134.1875 7.308594 132.738281 C 6.707031 131.285156 6.140625 129.820312 5.613281 128.339844 C 5.082031 126.863281 4.589844 125.371094 4.132812 123.867188 C 3.675781 122.363281 3.257812 120.851562 2.878906 119.324219 C 2.496094 117.800781 2.152344 116.269531 1.84375 114.730469 C 1.539062 113.1875 1.269531 111.640625 1.039062 110.085938 C 0.808594 108.53125 0.617188 106.972656 0.460938 105.410156 C 0.308594 103.847656 0.191406 102.28125 0.117188 100.710938 C 0.0390625 99.140625 0 97.570312 0 96 C 0 94.429688 0.0390625 92.859375 0.117188 91.289062 C 0.191406 89.71875 0.308594 88.152344 0.460938 86.589844 C 0.617188 85.027344 0.808594 83.46875 1.039062 81.914062 C 1.269531 80.359375 1.539062 78.8125 1.84375 77.269531 C 2.152344 75.730469 2.496094 74.199219 2.878906 72.675781 C 3.257812 71.148438 3.675781 69.636719 4.132812 68.132812 C 4.589844 66.628906 5.082031 65.136719 5.613281 63.660156 C 6.140625 62.179688 6.707031 60.714844 7.308594 59.261719 C 7.910156 57.8125 8.546875 56.375 9.21875 54.953125 C 9.890625 53.535156 10.59375 52.132812 11.335938 50.746094 C 12.078125 49.359375 12.851562 47.992188 13.65625 46.644531 C 14.464844 45.296875 15.304688 43.972656 16.179688 42.664062 C 17.050781 41.359375 17.957031 40.074219 18.890625 38.8125 C 19.828125 37.550781 20.792969 36.3125 21.789062 35.097656 C 22.789062 33.882812 23.8125 32.695312 24.867188 31.53125 C 25.921875 30.367188 27.007812 29.230469 28.117188 28.117188 C 29.230469 27.007812 30.367188 25.921875 31.53125 24.867188 C 32.695312 23.8125 33.882812 22.789062 35.097656 21.789062 C 36.3125 20.792969 37.550781 19.828125 38.8125 18.890625 C 40.074219 17.957031 41.359375 17.050781 42.664062 16.179688 C 43.972656 15.304688 45.296875 14.464844 46.644531 13.65625 C 47.992188 12.851562 49.359375 12.078125 50.746094 11.335938 C 52.132812 10.59375 53.535156 9.890625 54.953125 9.21875 C 56.375 8.546875 57.8125 7.910156 59.261719 7.308594 C 60.714844 6.707031 62.179688 6.140625 63.660156 5.613281 C 65.136719 5.082031 66.628906 4.589844 68.132812 4.132812 C 69.636719 3.675781 71.148438 3.257812 72.675781 2.878906 C 74.199219 2.496094 75.730469 2.152344 77.269531 1.84375 C 78.8125 1.539062 80.359375 1.269531 81.914062 1.039062 C 83.46875 0.808594 85.027344 0.617188 86.589844 0.460938 C 88.152344 0.308594 89.71875 0.191406 91.289062 0.117188 C 92.859375 0.0390625 94.429688 0 96 0 C 97.570312 0 99.140625 0.0390625 100.710938 0.117188 C 102.28125 0.191406 103.847656 0.308594 105.410156 0.460938 C 106.972656 0.617188 108.53125 0.808594 110.085938 1.039062 C 111.640625 1.269531 113.1875 1.539062 114.730469 1.84375 C 116.269531 2.152344 117.800781 2.496094 119.324219 2.878906 C 120.851562 3.257812 122.363281 3.675781 123.867188 4.132812 C 125.371094 4.589844 126.863281 5.082031 128.339844 5.613281 C 129.820312 6.140625 131.285156 6.707031 132.738281 7.308594 C 134.1875 7.910156 135.625 8.546875 137.046875 9.21875 C 138.464844 9.890625 139.867188 10.59375 141.253906 11.335938 C 142.640625 12.078125 144.007812 12.851562 145.355469 13.65625 C 146.703125 14.464844 148.027344 15.304688 149.335938 16.179688 C 150.640625 17.050781 151.925781 17.957031 153.1875 18.890625 C 154.449219 19.828125 155.6875 20.792969 156.902344 21.789062 C 158.117188 22.789062 159.304688 23.8125 160.46875 24.867188 C 161.632812 25.921875 162.769531 27.007812 163.882812 28.117188 C 164.992188 29.230469 166.078125 30.367188 167.132812 31.53125 C 168.1875 32.695312 169.210938 33.882812 170.210938 35.097656 C 171.207031 36.3125 172.171875 37.550781 173.109375 38.8125 C 174.042969 40.074219 174.949219 41.359375 175.820312 42.664062 C 176.695312 43.972656 177.535156 45.296875 178.34375 46.644531 C 179.148438 47.992188 179.921875 49.359375 180.664062 50.746094 C 181.40625 52.132812 182.109375 53.535156 182.78125 54.953125 C 183.453125 56.375 184.089844 57.8125 184.691406 59.261719 C 185.292969 60.714844 185.859375 62.179688 186.386719 63.660156 C 186.917969 65.136719 187.410156 66.628906 187.867188 68.132812 C 188.324219 69.636719 188.742188 71.148438 189.121094 72.675781 C 189.503906 74.199219 189.847656 75.730469 190.15625 77.269531 C 190.460938 78.8125 190.730469 80.359375 190.960938 81.914062 C 191.191406 83.46875 191.382812 85.027344 191.539062 86.589844 C 191.691406 88.152344 191.808594 89.71875 191.882812 91.289062 C 191.960938 92.859375 192 94.429688 192 96 Z M 192 96 "/><path style=" stroke:none;fill-rule:nonzero;fill:#52891d;fill-opacity:1;" d="M 135.089844 56.933594 C 129.523438 55.542969 121.339844 50.734375 116.039062 48.808594 C 95.351562 42.34375 67.554688 47.515625 59.796875 71.433594 C 59.152344 72.082031 57.859375 72.082031 57.210938 72.082031 C 41.695312 90.183594 52.039062 112.160156 50.746094 132.203125 C 50.304688 139.265625 46.589844 145.511719 41.8125 150.796875 L 82.042969 190.988281 C 86.597656 191.648438 91.257812 192 96 192 C 143.414062 192 182.792969 157.625 190.59375 112.441406 Z M 135.089844 56.933594 "/><path style=" stroke:none;fill-rule:nonzero;fill:#ffffff;fill-opacity:1;" d="M 93.3125 40.667969 C 64.054688 42.058594 40.960938 66.429688 41.050781 95.722656 C 41.078125 104.644531 43.230469 113.066406 47.03125 120.507812 L 41.199219 148.824219 C 40.882812 150.355469 42.265625 151.699219 43.785156 151.339844 L 71.535156 144.765625 C 78.664062 148.316406 86.671875 150.367188 95.144531 150.496094 C 125.050781 150.953125 149.988281 127.207031 150.921875 97.308594 C 151.921875 65.261719 125.472656 39.136719 93.3125 40.667969 Z M 126.421875 125.976562 C 118.296875 134.101562 107.492188 138.578125 96 138.578125 C 89.269531 138.578125 82.828125 137.066406 76.851562 134.089844 L 72.988281 132.164062 L 55.972656 136.195312 L 59.554688 118.8125 L 57.652344 115.082031 C 54.546875 109.003906 52.972656 102.433594 52.972656 95.550781 C 52.972656 84.058594 57.449219 73.253906 65.574219 65.128906 C 73.628906 57.074219 84.609375 52.527344 96 52.527344 C 107.492188 52.527344 118.296875 57 126.421875 65.128906 C 134.550781 73.253906 139.023438 84.058594 139.023438 95.550781 C 139.027344 106.941406 134.476562 117.921875 126.421875 125.976562 Z M 126.421875 125.976562 "/><path style=" stroke:none;fill-rule:nonzero;fill:#ffffff;fill-opacity:1;" d="M 122.667969 107.46875 L 112.023438 104.414062 C 110.625 104.011719 109.117188 104.410156 108.097656 105.449219 L 105.496094 108.097656 C 104.398438 109.21875 102.734375 109.578125 101.28125 108.988281 C 96.246094 106.949219 85.652344 97.535156 82.949219 92.824219 C 82.167969 91.464844 82.296875 89.765625 83.257812 88.527344 L 85.527344 85.585938 C 86.417969 84.433594 86.605469 82.886719 86.015625 81.554688 L 81.539062 71.429688 C 80.46875 69.003906 77.367188 68.296875 75.34375 70.007812 C 72.371094 72.523438 68.847656 76.339844 68.417969 80.570312 C 67.664062 88.027344 70.863281 97.425781 82.953125 108.714844 C 96.925781 121.757812 108.113281 123.476562 115.402344 121.714844 C 119.53125 120.714844 122.835938 116.703125 124.917969 113.417969 C 126.339844 111.175781 125.214844 108.199219 122.667969 107.46875 Z M 122.667969 107.46875 "/><path style=" stroke:none;fill-rule:nonzero;fill:#d1d1d1;fill-opacity:1;" d="M 133.5 55.390625 L 125.167969 63.933594 C 125.59375 64.324219 126.015625 64.71875 126.425781 65.128906 C 134.550781 73.253906 139.027344 84.058594 139.027344 95.550781 C 139.027344 106.941406 134.476562 117.921875 126.425781 125.976562 C 118.296875 134.101562 107.492188 138.578125 96 138.578125 C 89.273438 138.578125 82.828125 137.066406 76.851562 134.089844 L 72.988281 132.164062 L 55.972656 136.195312 L 56.324219 134.488281 L 41.261719 149.929688 C 41.59375 150.925781 42.648438 151.605469 43.785156 151.335938 L 71.535156 144.761719 C 78.664062 148.316406 86.671875 150.367188 95.144531 150.496094 C 125.050781 150.953125 149.988281 127.207031 150.921875 97.308594 C 151.4375 80.757812 144.632812 65.789062 133.5 55.390625 Z M 133.5 55.390625 "/><path style=" stroke:none;fill-rule:nonzero;fill:#d1d1d1;fill-opacity:1;" d="M 122.667969 107.46875 L 112.023438 104.414062 C 110.625 104.011719 109.117188 104.410156 108.097656 105.449219 L 105.496094 108.097656 C 104.398438 109.21875 102.734375 109.578125 101.28125 108.988281 C 98.371094 107.8125 93.609375 104.171875 89.585938 100.398438 L 82.1875 107.984375 C 82.441406 108.226562 82.695312 108.46875 82.957031 108.714844 C 96.925781 121.757812 108.117188 123.476562 115.402344 121.714844 C 119.535156 120.714844 122.835938 116.703125 124.917969 113.417969 C 126.339844 111.175781 125.214844 108.199219 122.667969 107.46875 Z M 122.667969 107.46875 "/></g></svg>